<svg preserveAspectRatio="none" width="100%" height="100%" overflow="visible" style="display: block;" viewBox="0 0 11.8504 9.97552" fill="none" xmlns="http://www.w3.org/2000/svg">
<path id="Vector" d="M6.8625 0.149609C7.02661 0.149609 7.18393 0.215245 7.3 0.33125L11.5188 4.55L11.5959 4.64375C11.6184 4.6774 11.6379 4.7136 11.6535 4.75117C11.6845 4.82609 11.7004 4.90643 11.7004 4.9875C11.7004 5.0688 11.6846 5.1497 11.6535 5.2248C11.6224 5.29992 11.5763 5.36851 11.5188 5.42598L7.3 9.64375C7.18391 9.75984 7.02667 9.82539 6.8625 9.82539C6.69833 9.82539 6.54109 9.75984 6.425 9.64375C6.309 9.52768 6.24336 9.37036 6.24336 9.20625C6.24343 9.04217 6.30897 8.88478 6.425 8.76875L9.58809 5.60664H0.76875C0.604648 5.60664 0.447288 5.54104 0.33125 5.425C0.215294 5.30897 0.149609 5.15154 0.149609 4.9875C0.149678 4.82349 0.215273 4.66598 0.33125 4.55C0.447276 4.43404 0.604709 4.36934 0.76875 4.36934H9.58809L6.425 1.20625C6.30899 1.09018 6.24336 0.93286 6.24336 0.76875C6.24343 0.604672 6.30897 0.447276 6.425 0.33125C6.54107 0.215244 6.69839 0.149609 6.8625 0.149609Z" fill="var(--fill-0, #15151D)" stroke="var(--stroke-0, #15151D)" stroke-width="0.3"/>
</svg>
